<svg id="visual" viewBox="0 0 450 900" width="450" height="900" xmlns="http://www.w3.org/2000/svg" xmlns:xlink="http://www.w3.org/1999/xlink" version="1.1"><rect x="0" y="0" width="450" height="900" fill="#ffffff"></rect><path d="M0 313L12.5 299C25 285 50 257 75 291C100 325 125 421 150 417.3C175 413.7 200 310.3 225 278.2C250 246 275 285 300 332C325 379 350 434 375 419.2C400 404.3 425 319.7 437.5 277.3L450 235L450 901L437.5 901C425 901 400 901 375 901C350 901 325 901 300 901C275 901 250 901 225 901C200 901 175 901 150 901C125 901 100 901 75 901C50 901 25 901 12.5 901L0 901Z" fill="#0347ad" stroke-linecap="round" stroke-linejoin="miter"></path></svg>