<svg id="visual" viewBox="0 0 1000 450" width="1000" height="450" xmlns="http://www.w3.org/2000/svg" xmlns:xlink="http://www.w3.org/1999/xlink" version="1.1"><rect x="0" y="0" width="1000" height="450" fill="#ffffff"></rect><path d="M0 258L18.5 270.3C37 282.7 74 307.3 111 307.8C148 308.3 185 284.7 222 270C259 255.3 296 249.7 333 256.2C370 262.7 407 281.3 444.2 286.3C481.3 291.3 518.7 282.7 555.8 265.8C593 249 630 224 667 229.8C704 235.7 741 272.3 778 291C815 309.7 852 310.3 889 303.2C926 296 963 281 981.5 273.5L1000 266L1000 451L981.5 451C963 451 926 451 889 451C852 451 815 451 778 451C741 451 704 451 667 451C630 451 593 451 555.8 451C518.7 451 481.3 451 444.2 451C407 451 370 451 333 451C296 451 259 451 222 451C185 451 148 451 111 451C74 451 37 451 18.5 451L0 451Z" fill="#0347ad" stroke-linecap="round" stroke-linejoin="miter"></path></svg>